<svg xmlns="http://www.w3.org/2000/svg" xml:space="preserve" id="Layer_1" width="800" height="800" version="1.1" viewBox="0 0 512 512"><style>.st3{fill:none;stroke:#1e247e;stroke-width:3;stroke-linecap:round;stroke-miterlimit:10}.st14{fill:#d3d5e7}.st24,.st25{fill:none;stroke:#fff;stroke-width:7;stroke-linecap:round;stroke-miterlimit:10}.st25{stroke:#1e247e;stroke-width:2.5}.st28{fill:#fff}.st34,.st37{fill:none;stroke:#1e247e;stroke-width:6;stroke-linecap:round;stroke-linejoin:round;stroke-miterlimit:10}.st37{stroke-width:3}</style><g id="Message_and_nofitications"><circle cx="255.4" cy="256" r="215.6" style="fill:#eeedf2"/><path id="Bottom_line_15_" d="M455.1 471.6H471m-393.8 0h361.5m-398.9 0h20.9" class="st34"/><circle id="_x33_rd_notification_shadow" cx="375.5" cy="214.3" r="35" class="st14"/><g id="Envelope"><path id="Shape_77_" d="M406.9 292.5v152.6c0 14.1-11.4 25.5-25.5 25.5h-252c-14.1 0-25.5-11.4-25.5-25.5V292.5c0-2.7.5-5.4 1.6-7.9 1.1-2.7 2.7-5.2 4.9-7.2l122.5-116.9c12.6-12 32.4-12 45.1 0l122.5 116.9c2.2 2.1 3.8 4.5 4.9 7.2.9 2.5 1.5 5.2 1.5 7.9z" style="fill:#dbe7fe;stroke:#1e247e;stroke-width:6;stroke-linejoin:round;stroke-miterlimit:10"/><g id="Outer"><path d="m405.3 284.7-43.6 29.4-69.5 46.8c-22.2 15-51.3 15-73.6 0l-69.5-46.8-43.6-29.4" style="fill:none;stroke:#1e247e;stroke-width:6;stroke-linejoin:round;stroke-miterlimit:10"/><g id="Lines_33_"><path id="Bottom_68_" d="m206.2 418.2 8 6.2" class="st25"/><path id="Middle_56_" d="m206.2 410.5 16.1 12.3" class="st25"/><path id="Top_70_" d="m217.8 411.6 4.5 3.4" class="st25"/></g><g id="Vertical_line_5_"><path id="Bottom_67_" d="M392.6 348.9v22.5" class="st3"/><path id="Top_69_" d="M392.6 330.4v5.9" class="st3"/></g><path id="Bottom_line_14_" d="M396.8 448.3c-.9 4.5-4.1 8.2-8.3 9.8" class="st37"/><g id="Content_14_" style="opacity:.7"><path id="Bottom_66_" d="M175 431.9h-38.2c-3 0-5.4-2.4-5.4-5.4v-18.3c0-3 2.4-5.4 5.4-5.4H175c3 0 5.4 2.4 5.4 5.4v18.3c0 3-2.4 5.4-5.4 5.4" class="st28"/><path id="Top_68_" d="M174.6 390.7h-38.2c-3 0-5.4-2.4-5.4-5.4V367c0-3 2.4-5.4 5.4-5.4h38.2c3 0 5.4 2.4 5.4 5.4v18.3c-.1 3-2.5 5.4-5.4 5.4" class="st28"/></g></g><g id="Inner"><g id="Letter"><path id="Shape_76_" d="M361.7 270.8v43.3l-80.5 54.2a46.04 46.04 0 0 1-51.5 0l-80.5-54.2v-43.3c0-1.9 1.5-3.4 3.4-3.4h205.7c1.8-.1 3.4 1.5 3.4 3.4z" style="fill:#fff;stroke:#1e247e;stroke-width:6;stroke-linejoin:round;stroke-miterlimit:10"/><g id="Content_13_"><path id="Bottom_65_" d="M202.3 330.4h106.2" class="st34"/><path id="Middle_55_" d="M202.3 315.7h106.2" class="st34"/><path id="Top_67_" d="M202.3 300.9h106.2" class="st34"/></g></g><path d="M246.8 172.2c4.8-4.6 12.4-4.6 17.2 0" class="st37"/></g></g><g id="Nofitications"><g id="_x33_rd_19_"><circle id="Shape_75_" cx="361.7" cy="205.5" r="35" style="fill:#da867d;stroke:#1e247e;stroke-width:6;stroke-linecap:round;stroke-linejoin:round;stroke-miterlimit:10"/><g id="Sparkles_21_"><path id="_x32_nd_21_" d="m426.6 169.6-8.4 5.1" class="st24"/><path id="_x33_rd_20_" d="m432 183.6-8.7.2" class="st24"/><path id="_x31_st_21_" d="m411.5 166.6 3.8-8.5" class="st24"/></g></g><g id="_x32_nd_19_"><circle id="Shadow_53_" cx="331.4" cy="128" r="35" class="st14"/><circle id="Shape_74_" cx="317.1" cy="117.2" r="35" style="fill:#79caa1;stroke:#1e247e;stroke-width:6;stroke-linecap:round;stroke-linejoin:round;stroke-miterlimit:10"/><g id="Sparkles_20_"><path id="_x33_rd_18_" d="m308.1 56.8-1.7 8.5" class="st24"/><path id="_x32_nd_20_" d="m293.2 59.3 3.3 9.3" class="st24"/><path id="_x31_st_20_" d="m287.3 73.5-7.6-5.5" class="st24"/></g></g><g id="_x31_st_18_"><circle id="Shadow_52_" cx="237.3" cy="105.5" r="35" class="st14"/><circle id="Shape_73_" cx="220.4" cy="98.3" r="35" style="fill:#f0c330;stroke:#1e247e;stroke-width:6;stroke-linecap:round;stroke-linejoin:round;stroke-miterlimit:10"/><g id="Sparkles_19_"><path id="_x33_rd_17_" d="m172 124.9-5.7 7.4" class="st24"/><path id="_x32_nd_18_" d="m158 118.6 9.3-3.1" class="st24"/><path id="_x31_st_19_" d="m155.9 103.6 8.5 1.9" class="st24"/></g></g></g></g><path d="M357.3 198.2s6.5-4.4 9 1.3c2.8 6.4-10.3 15-10.3 15h11.4m-43.2-94.4h-17l12.1-15.1v21.1M212.2 92.5l6.6-6.4v21.2" style="fill:none;stroke-linecap:round;stroke-linejoin:round;stroke-miterlimit:10;stroke-width:3;stroke:#fff"/></svg>