<svg xmlns="http://www.w3.org/2000/svg" xml:space="preserve" width="800" height="800" viewBox="0 0 512 512"><path d="M276.744 121.339v248.93c0 16.329-3.203 32.19-9.454 47.192-6.094 14.454-14.767 27.424-25.783 38.519-11.095 11.173-23.908 19.924-38.285 26.018-14.923 6.407-30.706 9.61-46.958 9.61s-32.034-3.203-46.957-9.61c-14.377-6.094-27.19-14.845-38.285-26.018-11.016-11.095-19.689-24.065-25.783-38.519-6.25-15.001-9.454-30.862-9.454-47.192v-81.101a62.6 62.6 0 0 0 20.705 3.516c1.094 0 2.188 0 3.203-.157a58.2 58.2 0 0 0 16.955-3.204v80.945c0 44.379 35.706 80.476 79.617 80.476 43.91 0 79.617-36.097 79.617-80.476V120.401c0-1.093 0-2.109-.078-3.203-2.188-42.426-37.035-76.335-79.538-76.335-10.939 0-21.408 2.266-30.94 6.407-18.83 7.97-33.909 23.127-42.113 42.035-3.75 8.594-5.938 18.049-6.485 27.893-.078 1.094-.078 2.11-.078 3.203v50.864c-1.25-4.766-9.845-8.438-20.315-8.438-5.547 0-10.469 1.016-14.22 2.735-3.828 1.641-6.25 4.063-6.329 6.798v-51.021c0-16.329 3.204-32.19 9.454-47.192.859-1.953 1.719-3.907 2.657-5.782 5.86-12.11 13.595-23.127 23.127-32.737 9.845-9.923 21.018-17.892 33.441-23.83 1.563-.782 3.203-1.484 4.844-2.188C124.23 3.203 140.013 0 156.264 0s32.034 3.203 46.958 9.61a101 101 0 0 1 9.688 4.688c10.548 5.547 20.08 12.736 28.596 21.33 8.282 8.282 15.236 17.658 20.705 27.971 1.875 3.438 3.594 6.953 5.078 10.548 4.22 10.157 7.11 20.783 8.438 31.643.705 5.158 1.017 10.314 1.017 15.549" style="fill:#718d6a"/><path d="M312.529 355.736c0 48.13-21.721 91.102-55.943 119.777C229.474 498.249 194.471 512 156.264 512c-21.799 0-42.582-4.453-61.412-12.579-13.907-5.938-26.877-13.829-38.363-23.44-18.986-15.783-34.144-35.941-43.988-58.911C4.454 398.24 0 377.457 0 355.736 0 269.478 70.006 199.55 156.264 199.55c29.065 0 56.333 7.97 79.617 21.877 15.548 9.142 29.378 21.017 40.863 34.925 22.346 26.955 35.785 61.646 35.785 99.384" style="fill:#718d6a"/><path d="M156.263 471.09c-30.808 0-59.772-11.997-81.556-33.781-21.785-21.785-33.781-50.749-33.781-81.556 0-30.808 11.997-59.771 33.781-81.556s50.748-33.782 81.556-33.782 59.771 11.997 81.556 33.782 33.781 50.748 33.781 81.556-11.997 59.771-33.781 81.556-50.748 33.781-81.556 33.781" style="fill:#d8b430"/><path d="M192.404 334.62c0-19.96-16.181-36.141-36.141-36.141s-36.141 16.181-36.141 36.141c0 15.273 9.474 28.333 22.866 33.625-5.324 16.103-12.85 38.18-12.85 38.18h52.251s-7.526-22.076-12.85-38.18c13.391-5.292 22.865-18.352 22.865-33.625" style="fill:#5e5d29"/><path d="M235.881 120.401v14.924c0-44.379-35.706-80.476-79.617-80.476-43.91 0-79.617 36.097-79.617 80.476v-14.924c0-1.093 0-2.109.078-3.203 1.64-42.895 36.722-77.273 79.538-77.273s77.898 34.378 79.538 77.273c.08 1.094.08 2.11.08 3.203M76.804 172.438c0 5.391-9.141 9.688-20.471 9.688s-20.549-4.297-20.549-9.688v-.078c.156-5.313 9.298-9.532 20.549-9.532 10.47 0 19.064 3.673 20.315 8.438.078.39.156.781.156 1.172" style="fill:#62796d"/><path d="M156.263 262.533c30.808 0 59.771 11.997 81.556 33.782 19.156 19.156 30.74 43.865 33.257 70.497.345-3.654.524-7.343.524-11.059 0-30.808-11.997-59.771-33.781-81.556-21.785-21.785-50.749-33.782-81.556-33.782-30.808 0-59.772 11.997-81.556 33.782s-33.782 50.748-33.782 81.556c0 3.717.179 7.406.524 11.06 2.517-26.632 14.101-51.34 33.257-70.497 21.786-21.786 50.75-33.783 81.557-33.783" style="opacity:.1;fill:#fff"/><path d="M256.61 475.506c-27.145 22.778-62.145 36.484-100.35 36.484-37.953 0-72.741-13.534-99.808-36.029 27.955 14.397 62.836 22.228 99.651 22.228 37.199.001 72.404-7.987 100.507-22.683" style="opacity:.1;fill:#040000"/><path d="M276.719 218.365 37.665 457.419c5.738 6.689 12.01 12.905 18.788 18.542 27.066 22.496 61.854 36.029 99.807 36.029 38.205 0 73.205-13.706 100.35-36.484 34.167-28.653 55.893-71.665 55.893-119.751 0-37.809-13.435-72.475-35.784-99.501z" style="opacity:.1;fill:#040000"/></svg>