<svg xmlns="http://www.w3.org/2000/svg" xml:space="preserve" width="800" height="800" viewBox="0 0 508 508"><circle cx="254" cy="254" r="254" style="fill:#324a5e"/><path d="M391.6 97.6H116.4c-10.4 0-18.8 8.4-18.8 18.8v274.8c0 10.4 8.4 18.8 18.8 18.8h274.8c10.4 0 18.8-8.4 18.8-18.8V116.4c.4-10.4-8-18.8-18.4-18.8" style="fill:#fff"/><path d="M405.2 103.6 340 220l-127.6-75.2 26.4-47.2H392c.8 0 1.2 0 2 .4h.8c4 .8 7.6 2.8 10.4 5.6q-.6-.6 0 0" style="fill:#4cdbc4"/><path d="m234.8 97.6-87.2 165.2-50-38.8V116.4c0-10.4 8.4-18.8 18.8-18.8z" style="fill:#84dbff"/><path d="m410.4 125.6-81.2 141.6 81.2 46.8v34.8L314 293.6l-67.2 116.8H212l105.6-183.6-100-57.6-120 208.4v-60.8l126-219.2h34.8l-26 45.2 100 57.6 59.2-102.8h.8c.8 0 1.2 0 2 .4h.8c3.6.8 6.8 2.4 9.6 5.2l1.2 1.2c.4.4.8.8 1.2 1.6.4.4.8.8.8 1.6.8 1.2 1.2 2.4 1.6 3.6 0 .4.4 1.2.4 1.6 0 .8.4 1.2.4 2z" style="fill:#e6e9ee"/><path d="M364 410.4h-60L97.6 242.8V194z" style="fill:#ffd05b"/><path d="M317.6 181.6c0 31.6-57.6 120.8-57.6 120.8s-57.2-89.2-57.2-120.8 25.6-57.6 57.6-57.6 57.2 25.6 57.2 57.6" style="fill:#ff7058"/><circle cx="260" cy="181.6" r="30.8" style="fill:#fff"/></svg>