<svg xmlns="http://www.w3.org/2000/svg" width="800" height="800" class="icon flat-line" data-name="Flat Line" viewBox="0 0 24 24"><path d="M17 6V4a1 1 0 0 0-1-1h-3l-.5 2h-3L9 3H6a1 1 0 0 0-1 1v16a1 1 0 0 0 1 1h7.63A8 8 0 0 1 17 6" style="fill:#2ca9bc;stroke-width:2"/><path d="M19 11.77a3 3 0 0 0-2-.77h0a3 3 0 0 0-3 3h0a3 3 0 0 0 3 3h0a3 3 0 0 0 2-.77" style="fill:none;stroke:#000;stroke-linecap:round;stroke-linejoin:round;stroke-width:2"/><path d="M14 21H6a1 1 0 0 1-1-1V4a1 1 0 0 1 1-1h10a1 1 0 0 1 1 1v2" data-name="primary" style="fill:none;stroke:#000;stroke-linecap:round;stroke-linejoin:round;stroke-width:2"/><path d="M13 14h3M13 3H9l.5 2h3Z" data-name="primary" style="fill:none;stroke:#000;stroke-linecap:round;stroke-linejoin:round;stroke-width:2"/></svg>