<svg xmlns="http://www.w3.org/2000/svg" xmlns:xlink="http://www.w3.org/1999/xlink" width="800" height="800" viewBox="0 0 92.211 92.211"><defs><linearGradient id="a" x1=".386" x2=".59" y1=".356" y2=".614" gradientUnits="objectBoundingBox"><stop offset="0" stop-color="#face00"/><stop offset="1" stop-color="#f68600"/></linearGradient><linearGradient xlink:href="#a" id="b" x1=".389" x2=".942" y1=".422" y2=".893"/></defs><g data-name="pencil ruler"><path fill="#e1e5f5" d="M1.167 14.704a3.99 3.99 0 0 0 0 5.631l70.714 70.716a3.993 3.993 0 0 0 5.628 0l6.772-6.774L7.939 7.933Z" data-name="Path 109"/><path fill="#f2f3f7" d="M14.707 1.16 7.935 7.933l76.342 76.344 6.773-6.773a3.99 3.99 0 0 0 0-5.629L20.334 1.16a3.993 3.993 0 0 0-5.627 0" data-name="Path 110"/><path fill="#61688d" d="m37.354 56.526 8.091-8.093-1.67-1.67-8.093 8.093ZM32.123 42.85l-4.225 4.222 1.673 1.671 4.221-4.222ZM4.548 23.722l1.672 1.67 8.093-8.093-1.672-1.671Zm19.79 11.347-4.223 4.222 1.67 1.67 4.223-4.223Zm-7.784-7.787-4.222 4.222L14 33.174l4.226-4.221Zm31.135 31.133-4.224 4.223 1.67 1.674 4.224-4.221Zm15.569 15.572-4.225 4.22 1.67 1.669 4.223-4.221Zm5.23 13.677 8.1-8.1-1.672-1.67-8.1 8.091ZM55.475 66.2l-4.227 4.226 1.673 1.664 4.223-4.218Z" data-name="Path 111"/><path fill="url(#a)" d="m453.318 263.411 5.513 3.754 3.328 6.2 6.2 3.331 3.755 5.512v.034h.024l48.933-48.93-18.821-18.83Z" data-name="Path 112" transform="translate(-445.833 -197.508)"/><path fill="#f27a74" d="m87.173 18.23-13.2-13.189a3.99 3.99 0 0 0-5.625 0l-8.737 8.735 18.821 18.823 8.737-8.736a4 4 0 0 0 .004-5.633" data-name="Path 113"/><path fill="#f2f3f7" d="M26.282 84.73v-.034l-3.755-5.512-6.2-3.331-3.328-6.2-5.513-3.754-3.607 22.429Z" data-name="Path 114"/><path fill="#555c84" d="m13.881 86.725-8.394-8.393-1.609 10Z" data-name="Path 115"/><path fill="#f2f3f7" d="m56.417 16.974 3.198-3.197L78.435 32.6l-3.197 3.197z" data-name="Rectangle 7"/><path fill="url(#b)" d="m458.848 267.205 3.311 6.157 6.2 3.331 48.053-48.052-9.5-9.5Z" data-name="Path 116" transform="translate(-445.833 -197.508)"/></g></svg>