<svg xmlns="http://www.w3.org/2000/svg" xml:space="preserve" viewBox="0 0 180 180"><path fill="#FF916E" d="M154.623 90.001c0 35.689-28.934 64.621-64.623 64.621S25.377 125.69 25.377 90.001c0-35.691 28.934-64.623 64.623-64.623s64.623 28.932 64.623 64.623"/><path fill="#FF916E" d="m69.924 122.153-.002-3.186h-1.51a8.7 8.7 0 0 0-1.387-3.346l1.068-1.068-2.256-2.254-1.068 1.068a8.7 8.7 0 0 0-3.314-1.381l-.033-.004.004-1.512H58.24v1.512a9 9 0 0 0-.945.23 8.6 8.6 0 0 0-2.402 1.156l-1.07-1.066-2.252 2.252 1.068 1.066a8.8 8.8 0 0 0-1.389 3.348l-1.508.002.002 3.186h1.508a8.7 8.7 0 0 0 1.389 3.348l-1.068 1.068 2.252 2.252 1.07-1.07a8.6 8.6 0 0 0 3.348 1.389v1.512l3.184-.002v-1.51q.486-.091.947-.229a8.7 8.7 0 0 0 2.402-1.16l1.068 1.07 2.252-2.256-1.068-1.066a8.7 8.7 0 0 0 1.385-3.348zm-10.092 5.057a6.645 6.645 0 0 1-6.646-6.646 6.646 6.646 0 1 1 13.294 0 6.646 6.646 0 0 1-6.648 6.646m44.381 5.109v-1.68h-.795a4.6 4.6 0 0 0-.73-1.762l.561-.562-1.186-1.187-.562.562a4.7 4.7 0 0 0-1.359-.637 7 7 0 0 0-.389-.09l-.016-.004.002-.795h-1.68v.797q-.255.047-.498.121a4.5 4.5 0 0 0-1.266.609l-.562-.562-1.186 1.186.561.562a4.6 4.6 0 0 0-.729 1.764h-.795v1.68h.795c.121.645.371 1.242.73 1.762l-.562.562 1.186 1.188.564-.562a4.6 4.6 0 0 0 1.764.729v.797h1.678v-.795q.255-.048.498-.123a4.6 4.6 0 0 0 1.264-.607l.562.562 1.188-1.189-.562-.562c.358-.52.611-1.117.73-1.762h.794zm-5.315 2.662a3.5 3.5 0 0 1-3.5-3.502 3.5 3.5 0 1 1 7.002 0 3.5 3.5 0 0 1-3.502 3.502m10.133-.363q.211.151.428.293.219.141.441.27l.838-.758q.272.154.549.289l-.144 1.121q.471.214.955.391l.684-.896q.296.096.592.182l.064 1.125q.502.127 1.01.211l.51-1.01q.306.044.613.07l.27 1.096q.518.031 1.033.023l.314-1.09q.309-.012.615-.045l.469 1.027q.513-.065 1.021-.168l.107-1.125q.3-.07.6-.158l.646.928c.328-.105.654-.227.973-.355l-.1-1.127q.284-.123.56-.264l.807.791c.301-.162.596-.34.887-.525l-.303-1.086q.256-.175.5-.365l.939.629q.399-.325.777-.682l-.502-1.012q.218-.218.426-.449l1.037.443q.336-.389.643-.812l-.68-.904.172-.256q.084-.131.164-.262l1.104.246q.257-.453.477-.918l-.828-.764q.125-.283.234-.572l1.129.041q.17-.49.303-.986l-.959-.6q.073-.302.129-.608l1.113-.168c.051-.34.094-.682.117-1.025l-1.053-.41a9 9 0 0 0 .01-.617l1.068-.373a12 12 0 0 0-.074-1.031l-1.111-.211a8 8 0 0 0-.102-.611l.98-.559q-.11-.505-.262-1.002l-1.131-.006a11 11 0 0 0-.209-.578l.861-.732a14 14 0 0 0-.441-.934l-1.113.203q-.149-.27-.314-.531l.715-.879a14 14 0 0 0-.607-.834l-1.055.402a11 11 0 0 0-.408-.467l.539-.99a14 14 0 0 0-.75-.713l-.963.592q-.237-.197-.488-.381l.348-1.074a10 10 0 0 0-.428-.293c-.145-.094-.295-.182-.441-.27l-.838.758q-.27-.154-.547-.289l.145-1.121a14 14 0 0 0-.955-.391l-.684.896a16 16 0 0 0-.592-.182l-.064-1.125a13 13 0 0 0-1.012-.213l-.51 1.012a9 9 0 0 0-.611-.07l-.271-1.094a12 12 0 0 0-1.033-.023l-.312 1.086q-.31.014-.615.047l-.471-1.029q-.512.066-1.02.17l-.109 1.125q-.299.07-.598.158l-.648-.928q-.492.159-.971.357l.096 1.125a9 9 0 0 0-.557.262l-.807-.791c-.303.162-.6.342-.889.527l.305 1.086q-.255.173-.502.365l-.938-.629q-.399.323-.777.68l.502 1.014q-.22.218-.428.449l-1.037-.443c-.221.262-.438.529-.641.811l.678.908a6 6 0 0 0-.17.254c-.057.086-.109.174-.164.264l-1.104-.248c-.176.301-.33.607-.48.916l.832.764q-.127.283-.236.572l-1.129-.039c-.111.326-.215.656-.303.986l.959.6q-.073.302-.127.605l-1.115.168a13 13 0 0 0-.115 1.025l1.053.414q-.017.305-.012.615l-1.066.373c.012.346.033.689.072 1.031l1.111.211q.04.306.102.609l-.983.562q.113.503.266 1l1.129.006q.097.293.211.578l-.863.733c.133.318.285.627.443.934l1.111-.203q.15.272.316.531l-.715.879c.189.285.394.564.605.836l1.055-.404q.199.237.408.467l-.539.99q.362.37.75.711l.965-.59q.235.196.486.381zm2.44-1.803 3.68-5.691c.299.135.617.231.945.277q.367.054.729.031l1.422 6.625a10.3 10.3 0 0 1-6.776-1.242m7.849 1.012-1.42-6.627a3.6 3.6 0 0 0 1.402-.965l5.689 3.68a10.28 10.28 0 0 1-5.671 3.912m6.27-4.834-5.689-3.682c.242-.541.34-1.115.307-1.674l6.627-1.422a10.32 10.32 0 0 1-1.245 6.778m1.014-7.853-6.627 1.422a3.56 3.56 0 0 0-.967-1.404l3.682-5.689a10.3 10.3 0 0 1 3.912 5.671m-4.836-6.27-3.682 5.693a3.6 3.6 0 0 0-1.676-.309l-1.42-6.627a10.32 10.32 0 0 1 6.778 1.243m-7.854-1.012 1.422 6.627a3.6 3.6 0 0 0-1.405.965l-5.688-3.68a10.3 10.3 0 0 1 5.671-3.912m-6.269 4.836 5.687 3.68a3.6 3.6 0 0 0-.305 1.676l-6.625 1.422a10.34 10.34 0 0 1 1.243-6.778m-1.01 7.854 6.623-1.422c.182.48.469.928.861 1.307.033.031.072.062.107.096l-3.682 5.689a10.3 10.3 0 0 1-3.909-5.67M83.68 69.175a11 11 0 0 0 .83.539l.803-.725q.26.147.524.275l-.139 1.072q.451.206.914.373l.654-.857q.282.094.566.174l.061 1.076q.48.12.967.203l.488-.967q.292.042.584.066l.26 1.049q.495.03.988.021l.301-1.041a8 8 0 0 0 .588-.043l.447.984q.49-.065.977-.164l.104-1.074q.287-.067.574-.15l.619.885q.469-.151.928-.34l-.092-1.076q.27-.118.533-.252l.771.756c.289-.154.57-.324.848-.502l-.289-1.039q.243-.167.479-.35l.898.602q.382-.31.742-.652l-.479-.969q.21-.206.406-.428l.994.424q.317-.374.611-.777l-.648-.865q.085-.122.164-.246.082-.124.158-.248l1.055.236q.247-.433.457-.879l-.793-.73q.12-.27.223-.547l1.08.039q.164-.468.291-.945l-.916-.572c.047-.191.084-.387.119-.58l1.068-.16c.049-.328.09-.654.111-.98l-1.006-.395q.012-.295.01-.59l1.02-.357q-.016-.495-.07-.986l-1.062-.201a10 10 0 0 0-.098-.584l.939-.535a12 12 0 0 0-.252-.957l-1.08-.006a11 11 0 0 0-.203-.555l.826-.699c-.127-.305-.273-.6-.426-.893l-1.061.193a12 12 0 0 0-.301-.508l.682-.84a13 13 0 0 0-.58-.799l-1.008.385c-.127-.15-.256-.301-.391-.445l.514-.947a12 12 0 0 0-.717-.682l-.92.566a9 9 0 0 0-.467-.365l.332-1.027q-.202-.142-.408-.279-.212-.133-.424-.258l-.801.723a10 10 0 0 0-.523-.275l.139-1.07a11 11 0 0 0-.914-.373l-.654.855a13 13 0 0 0-.564-.174l-.062-1.076q-.48-.12-.967-.203l-.486.967a10 10 0 0 0-.588-.066l-.258-1.049q-.495-.03-.988-.021l-.301 1.041a10 10 0 0 0-.588.043l-.447-.982q-.492.062-.979.162l-.102 1.074a11 11 0 0 0-.572.152l-.621-.887q-.47.151-.93.34l.094 1.076q-.271.119-.533.252l-.771-.756q-.433.233-.85.504l.291 1.039a10 10 0 0 0-.48.348l-.898-.602q-.38.312-.742.652l.479.969q-.207.206-.406.428l-.992-.424q-.32.374-.611.777l.646.865-.164.246a7 7 0 0 0-.154.25l-1.057-.236q-.247.432-.457.877l.793.733q-.12.27-.223.545l-1.08-.039q-.164.471-.291.945l.916.572q-.068.29-.121.58l-1.066.162a12 12 0 0 0-.111.98l1.008.393a8 8 0 0 0-.012.59l-1.02.357q.013.495.07.984l1.061.203q.042.293.098.584l-.938.535q.105.483.252.957l1.082.006q.091.282.199.555l-.824.699q.192.457.424.893l1.062-.193q.143.258.301.51l-.682.84q.274.408.58.797l1.008-.385q.19.227.391.445l-.516.949q.345.351.717.68l.922-.566q.226.19.467.365zm2.33-1.725 3.521-5.441c.287.127.59.219.904.264q.352.051.697.029l1.357 6.338a9.85 9.85 0 0 1-6.479-1.19m7.511.969-1.359-6.338c.51-.195.971-.51 1.34-.924l5.443 3.521a9.87 9.87 0 0 1-5.424 3.741m5.997-4.625-5.443-3.52a3.4 3.4 0 0 0 .295-1.602l6.336-1.359a9.87 9.87 0 0 1-1.188 6.481m.968-7.51-6.338 1.359a3.4 3.4 0 0 0-.926-1.342l3.52-5.441a9.86 9.86 0 0 1 3.744 5.424m-4.627-5.996-3.521 5.443a3.44 3.44 0 0 0-1.6-.293l-1.359-6.34a9.86 9.86 0 0 1 6.48 1.19m-7.509-.969 1.357 6.338a3.4 3.4 0 0 0-1.248.824l-.094.1-5.439-3.52a9.84 9.84 0 0 1 5.424-3.742m-5.996 4.627 5.439 3.517a3.46 3.46 0 0 0-.293 1.604l-6.334 1.359a9.84 9.84 0 0 1 1.188-6.48m-.967 7.51 6.334-1.357c.174.457.449.885.824 1.246q.05.047.104.092l-3.521 5.443a9.85 9.85 0 0 1-3.741-5.424" opacity=".5"/><path fill="#FFF" d="M44.285 113.274v2.188c0 1.207.957 2.188 2.137 2.188h83.855c1.18 0 2.137-.98 2.137-2.188v-2.188z"/><path fill="#333" d="M128.338 113.274V67.011c0-2.572-2.039-4.658-4.553-4.658H52.914c-2.514 0-4.551 2.086-4.551 4.658v46.264h79.975z"/><path fill="#FFF" d="M52.334 66.767h72.031v42.932H52.334zm37.191-2.186c0 .664-.527 1.201-1.176 1.201s-1.174-.537-1.174-1.201.525-1.203 1.174-1.203 1.176.539 1.176 1.203"/><path fill="#BAC0C4" d="M52.334 66.767h72.031v3.603H52.334z"/><path fill="#FF916E" d="M55.771 68.569c0 .543-.43.986-.963.986a.976.976 0 0 1-.963-.986c0-.545.432-.986.963-.986.534 0 .963.441.963.986"/><path fill="#FFDB76" d="M59.115 68.569a.98.98 0 0 1-.965.986.975.975 0 0 1-.963-.986c0-.545.43-.986.963-.986s.965.441.965.986"/><path fill="#ADEBF6" d="M62.455 68.569a.976.976 0 0 1-.963.986.977.977 0 0 1-.965-.986c0-.545.432-.986.965-.986.531 0 .963.441.963.986"/><path fill="#333" d="m122.055 68.569.697-.715a.27.27 0 0 0 0-.375.253.253 0 0 0-.365 0l-.699.715-.697-.715a.253.253 0 0 0-.365 0c-.1.104-.1.271 0 .375l.699.715-.699.713c-.1.105-.1.271 0 .375a.25.25 0 0 0 .365 0l.697-.715.699.715a.253.253 0 0 0 .365 0 .27.27 0 0 0 0-.375z"/><path fill="#323136" d="m59.459 92.8 3.928-.383q.357 1.977 1.441 2.906 1.083.928 2.924.928 1.951 0 2.941-.826.988-.824.988-1.93 0-.71-.416-1.207t-1.453-.865q-.71-.245-3.232-.875-3.247-.803-4.555-1.977-1.844-1.651-1.844-4.023 0-1.53.867-2.857.864-1.332 2.496-2.027 1.629-.695 3.936-.695 3.764 0 5.668 1.65 1.902 1.653 1.998 4.406l-4.039.178q-.258-1.542-1.111-2.217-.852-.676-2.557-.676-1.76 0-2.756.723-.642.466-.641 1.242 0 .709.6 1.215.764.639 3.711 1.336 2.946.696 4.359 1.439 1.41.741 2.207 2.033.8 1.287.799 3.184 0 1.719-.955 3.219-.954 1.502-2.701 2.23-1.744.73-4.35.73-3.794 0-5.826-1.754-2.032-1.752-2.427-5.107m19.656 6.506V79.31h14.828v3.383H83.152v4.432h10.041v3.371H83.152v5.441h11.172v3.369z"/><path fill="#FFF" d="M115.92 89.501c-.154-4.574-3.984-8.158-8.561-8.02h-.029a8.31 8.31 0 0 0-8.027 8.582c.156 4.584 4.002 8.174 8.59 8.018h.029c4.574-.172 8.152-4.006 7.998-8.58"/><path fill="#333" d="M107.785 94.005v.002z"/><path fill="#ADEBF6" d="m115.275 86.509-.436.021-.225-.23-.055-.383-.221.131-.102.473-.334-.332-.023-.322-.32-.256-.117-.111-.361.014.125.314.443.229.078.076-.094.051.012.254-.207.096-.182-.033-.117-.156.293.006.074-.109-.664-.416-.055-.186-.256.248-.27-.047-.389.543-.072.211-.26.031-.387.016-.232-.1-.084-.455.076-.221.389-.1.432.072.043-.238-.184-.037.049-.371.428-.08.287-.436.309-.062.283.031.102-.004-.07-.396-.334.148-.131-.293-.197-.021-.045-.203.154-.182.379-.162.092-.18a8.28 8.28 0 0 0-5.541-1.893h-.02a8.26 8.26 0 0 0-4.83 1.76l.42-.02.189.098.354.064.035.137.559.002-.082-.178-.496.004.111-.115-.045-.131-.449.016.477-.383.471-.016.232.297.367.01.213-.223.17.076-.295.309-.4.02c.02 0 .045.291.045.291l.51-.033.051-.139.352-.033.035-.209-.209-.029.064-.188.156-.053.555.008-.297.287.057.213.318.037-.031-.387.297-.168.537-.08.631.254.162.065.01.297.25.053-.117.24-.281.01-.068.002-.098.274-.811-.162.621-.359-.248-.197-.545.088-.045.051-.002-.002-.008.014-.15.168-.26.029.025.131.092.033-.002.045-.213.035-.01.125-.203.018-.043-.244-.359.123-.727.459.094.303.211.127.418.045.016.471.191-.037.162-.375.438-.154-.02-.564.238-.193.596.119-.027.375.158-.004.428-.23.037.49.15.082.174.1-.002.293-.158.059.008.201.244.104v.199l-.104.014-.002-.006-.13-.042-.336-.092-.025-.148.131-.098-.004-.135-.146-.031-.031.127-.254.047-.025-.008v.014l-.088.016-.078-.143-.084-.033-.182.006-.078.07.004.15.158.047.152.016-.033.016-.135.16-.064-.074-.137-.031-.355.359.049.037-.533.318-.494.551-.027.238-.5.354-.246.264.047.512-.359-.154-.008-.299-.98.035-.498.273-.209.414-.076.326.154.307.4.035.623-.447.062.211-.18.371.484.066.074.746.668.09.404-.5.514.086.189.244.49-.045.008-.146.275.123.318.467.525-.012.205.332.043.414.377.129.211.072.732-.018.225.344.33.094-.053.291-.34.467-.072 1.004-.311.264-.476.002-.15.281v.002l.135.512-.113.156-.383.525-.156.311-.484.254-.324.061-.01.139.23.057-.021.15-.197.203.129.152.246-.002-.008.191-.059.189-.018.152.375.293-.043.162-.494.006-.508-.414-.406-.66.031-.652-.303-.377.094-.66-.174-.043-.047-1.424s-.498-.35-.523-.35a3 3 0 0 1-.258-.053l-.059-.268-.654-.768.053-.285.004-.463.424-.318-.078-.518-.639-.025-.516-.551-.355-.084-.23-.035.021-.209-.291-.029.004.117-.732-.156-.307-.436.111-.221-.482-.656-.096-.486-.186.006.076.475.336.48-.027.195-.271-.033-.352-.555-.021-.658-.352-.154-.016-.473a8.3 8.3 0 0 0-.553 3.277c.154 4.584 4.012 8.188 8.596 8.033h.018a8.31 8.31 0 0 0 6.328-3.291l-.275.008-.018-.553-.332-.416-.021-.664-.252-.234-.031-.275.289-.598-.619-1.01.045-.701-.525-.037-.201-.186-.354.01-.172.174-.623.02-.018.057-.346.012-.824-.879-.02-.705.131-.053.039-.271-.186.008-.088-.281.898-.693-.016-.471.441-.266.182.014.369-.014.285-.166.93-.104.018.477.742.162.148.098.135-.004-.01-.26.424-.055.416.287.662-.023.045-.045a8 8 0 0 0-.243-.651m-4.009-2.235.074-.119.27-.064.082.33.152.229.102.109.178.061-.16.205-.32.041-.242.008.02-.287.199-.049-.023-.135-.189-.111-.137-.084zm-.43.536.156-.273.223-.059.162.065-.01.18-.332.254-.193.006zm-4.328.966.238-.008.047-.129.094-.006.109.021-.043.096-.119.016-.019.113-.09.061-.145.018-.01-.061-.059.002zm-.328.229.004-.121.076-.098.105.078-.014.121z"/><path fill="#333" d="M107.613 102.54a12.7 12.7 0 0 1-9.029-3.738 12.7 12.7 0 0 1-3.738-9.027c0-3.412 1.328-6.617 3.738-9.029a12.7 12.7 0 0 1 9.029-3.738c3.408 0 6.613 1.328 9.025 3.738a12.68 12.68 0 0 1 3.74 9.029c0 3.41-1.328 6.615-3.74 9.027a12.7 12.7 0 0 1-9.025 3.738m0-22.076a9.26 9.26 0 0 0-6.586 2.727 9.25 9.25 0 0 0-2.725 6.584c0 2.486.967 4.824 2.725 6.582a9.25 9.25 0 0 0 6.586 2.729 9.25 9.25 0 0 0 6.582-2.729 9.25 9.25 0 0 0 2.727-6.582 9.25 9.25 0 0 0-2.727-6.584 9.25 9.25 0 0 0-6.582-2.727"/><path fill="#CCCBC9" d="M114.076 83.31c3.57 3.57 3.57 9.358 0 12.928s-9.359 3.57-12.93 0a9.142 9.142 0 1 1 12.93-12.928" opacity=".4"/><path fill="#333" d="M106.855 80.665a9.141 9.141 0 0 1 5.709 15.573 9.1 9.1 0 0 1-5.709 2.645 9.141 9.141 0 1 0 0-18.218" opacity=".2"/><path fill="#FFF" d="M101.123 88.329a.8.8 0 0 1-.223-.031.77.77 0 0 1-.514-.959q.111-.367.256-.729a8.4 8.4 0 0 1 3.301-3.963.77.77 0 0 1 .825 1.297 6.85 6.85 0 0 0-2.699 3.242q-.12.296-.211.598a.77.77 0 0 1-.735.545m.988 6.508a.77.77 0 0 1-.637-.34 8.5 8.5 0 0 1-1.35-3.455.768.768 0 1 1 1.518-.231 7 7 0 0 0 1.105 2.828.767.767 0 0 1-.636 1.198"/><path fill="#333" d="m114.194 98.801 2.443-2.443 15.827 15.826-2.444 2.444zm-34.86 33.305h-9.41a.386.386 0 0 1 0-.77h9.41a.386.386 0 0 1 0 .77m-.529-2.925h-1.521a.384.384 0 0 1 0-.768h1.521a.384.384 0 0 1 0 .768m8.525 0H81.6a.384.384 0 0 1 0-.768h5.73a.385.385 0 1 1 0 .768m-5.826-4.561h-6.918a.384.384 0 1 1 0-.768h6.918a.384.384 0 0 1 0 .768m37.146-67.543h-9.41a.385.385 0 1 1 0-.768h9.41a.385.385 0 1 1 0 .768m-.529-2.924h-1.519a.385.385 0 1 1 0-.77h1.519a.386.386 0 0 1 0 .77m8.527 0h-5.731a.385.385 0 1 1 0-.77h5.731a.386.386 0 0 1 0 .77m-5.828-4.56h-6.918a.385.385 0 1 1 0-.768h6.918c.213 0 .383.172.383.383 0 .213-.17.385-.383.385M43.424 97.79h-1.52a.384.384 0 1 1 0-.768h1.52c.211 0 .385.172.385.385a.385.385 0 0 1-.385.383m-4.317 0h-5.73a.384.384 0 1 1 0-.768h5.73c.213 0 .383.172.383.385 0 .211-.17.383-.383.383m7.016 4.561h-6.918a.384.384 0 1 1 0-.768h6.918a.385.385 0 1 1 0 .768m88.357-17.327h-1.521a.385.385 0 0 1-.385-.383c0-.213.174-.385.385-.385h1.521a.385.385 0 1 1 0 .768m8.526 0h-5.73a.38.38 0 0 1-.383-.383c0-.213.17-.385.383-.385h5.73a.385.385 0 1 1 0 .768m-5.828-4.558h-6.918a.384.384 0 0 1 0-.768h6.918c.213 0 .385.17.385.383a.386.386 0 0 1-.385.385M61.404 56.915h-1.52a.385.385 0 0 1-.385-.383c0-.213.174-.385.385-.385h1.52a.385.385 0 1 1 0 .768m8.528 0h-5.729a.384.384 0 1 1 0-.768h5.729a.385.385 0 1 1 0 .768m-5.827-4.56h-6.918a.383.383 0 1 1 0-.768h6.918a.384.384 0 0 1 0 .768"/><path fill="#D3D3D3" d="M33.822 89.841H45.56a2.39 2.39 0 0 0 .967-1.92 2.396 2.396 0 0 0-3.415-2.167 3.45 3.45 0 0 0-3.256-2.322 3.445 3.445 0 0 0-3.389 2.844 2.224 2.224 0 0 0-3.496 1.821c.002.707.336 1.338.851 1.744"/><path fill="#FFF" d="M38.799 88.3h11.738a2.39 2.39 0 0 0 .967-1.918 2.396 2.396 0 0 0-3.414-2.169 3.442 3.442 0 0 0-6.645.522 2.223 2.223 0 0 0-3.498 1.821c0 .707.336 1.338.852 1.744"/><path fill="#D3D3D3" d="M123.592 100.296h10.824a2.209 2.209 0 0 0-2.258-3.769 3.173 3.173 0 0 0-6.127.48 2.05 2.05 0 0 0-3.225 1.68c.001.654.309 1.234.786 1.609"/><path fill="#FFF" d="M128.18 98.876h10.824a2.2 2.2 0 0 0 .893-1.771 2.21 2.21 0 0 0-3.15-2 3.175 3.175 0 0 0-6.127.482 2.05 2.05 0 0 0-3.225 1.678c0 .654.308 1.236.785 1.611"/></svg>