<svg xmlns="http://www.w3.org/2000/svg" viewBox="0 0 200 200"><defs><linearGradient id="a" x1="0%" x2="100%" y1="0%" y2="100%"><stop offset="0%" stop-color="#0396A6"/><stop offset="100%" stop-color="#05668D"/></linearGradient></defs><circle cx="100" cy="100" r="95" fill="#fff" stroke="#0396A6" stroke-width="2"/><path fill="none" stroke="url(#a)" stroke-linecap="round" stroke-width="8" d="M30 110c30-30 40 20 70 0s40 30 70 0"/><path fill="none" stroke="url(#a)" stroke-linecap="round" stroke-width="8" d="M30 130c30-30 40 20 70 0s40 30 70 0" opacity=".7"/><path fill="none" stroke="url(#a)" stroke-linecap="round" stroke-width="8" d="M30 150c30-30 40 20 70 0s40 30 70 0" opacity=".4"/><path fill="#FFA400" d="M85 35h30c3 0 5 2 5 5v20c0 3-2 5-5 5H85c-3 0-5-2-5-5V40c0-3 2-5 5-5m10 30h10v30H95z"/><text x="100" y="54" fill="#fff" font-family="Arial, sans-serif" font-size="13" font-weight="bold" text-anchor="middle">SURF</text><text x="100" y="85" fill="#05668D" font-family="Arial, sans-serif" font-size="14" font-weight="bold" text-anchor="middle">MOROCCO</text></svg>