<svg xmlns="http://www.w3.org/2000/svg" xml:space="preserve" viewBox="0 0 180 180"><path fill="#FF916E" d="M90 25.377C54.31 25.377 25.378 54.31 25.378 90c0 35.689 28.932 64.622 64.622 64.622S154.622 125.689 154.622 90 125.69 25.377 90 25.377"/><path fill="#CCCBC9" d="M99.743 128.572v-9.562H84.531v9.562c0 3.903-10.347 7.064-10.347 7.064h35.905c0-.001-10.346-3.161-10.346-7.064"/><path fill="#CCCBC9" d="M84.531 128.331h15.213v-9.322H84.531z"/><path fill="#333" d="M110.12 135.263H74.154c-.831 0-1.505.69-1.505 1.541s.674 1.541 1.505 1.541h35.967c.83 0 1.504-.69 1.504-1.541s-.675-1.541-1.505-1.541m29.69-85.561H44.463c-1.653 0-2.993 1.372-2.993 3.064v59.318h101.334V52.766c0-1.692-1.34-3.064-2.994-3.064"/><path fill="#FFF" d="M46.274 53.63H138v54.525H46.274z"/><path fill="#CCCBC9" d="M41.47 120.585c0 1.692 1.34 3.063 2.993 3.063h95.347c1.654 0 2.994-1.371 2.994-3.063v-9.098H41.47z"/><path fill="#EAE9E8" d="M92.136 114.829c-1.477 0-2.676 1.227-2.676 2.739 0 1.513 1.199 2.739 2.676 2.739 1.479 0 2.677-1.227 2.677-2.739 0-1.513-1.198-2.739-2.677-2.739"/><path fill="#CCCBC9" d="M124.901 41.655H82.719c-4.544 0-8.29 3.594-8.535 8.08h59.251c-.244-4.486-3.99-8.08-8.534-8.08"/><path fill="#F2F2F2" d="M132.616 41.655H82.16c9.93 0 9.47 8.095 9.47 8.095v59.925c0 5.558 4.381 10.063 9.786 10.063h39.982V49.749c.001 0 1.147-8.094-8.782-8.094"/><path fill="#CCCBC9" d="m101.943 106.41-.08-.013a5.407 5.407 0 0 0-4.534 6.21h10.211a6.71 6.71 0 0 0-5.597-6.197"/><path fill="#CCCBC9" d="m101.943 106.41-.08-.013a5.4 5.4 0 0 0-1.631.519 6.71 6.71 0 0 1 5.262 5.69h2.047a6.71 6.71 0 0 0-5.598-6.196" opacity=".2"/><path fill="#FFF" d="M140.764 106.382v.012h-38.913a6.71 6.71 0 0 1-1.008 13.344h38.664v-.009q.157.008.314.009a6.712 6.712 0 0 0 .943-13.356"/><path fill="#FF916E" d="M91.617 49.735h49.964v25.67H91.617z"/><path fill="#FDFBF2" d="M98.399 53.299h17.434v12.988H98.399zm19.747 0h17.435v12.988h-17.435z"/><path fill="#333" d="M93.847 68.953h18.092v1.324H93.847zm0 2.462h22.16v1.325h-22.16zm24.611-2.462h19.095v1.324h-19.095zm0 2.462h14.467v1.325h-14.467zm18.981-9.423 2.647-2.012-2.647-2.013zm-41.391 0v-4.025l-2.646 2.014z"/><path fill="#CCCBC9" d="M100.232 78.177a4.697 4.697 0 0 0 0 9.392 4.696 4.696 0 0 0 0-9.392m11.067 0a4.696 4.696 0 1 0 0 9.393 4.696 4.696 0 0 0 0-9.393m22.136 0a4.697 4.697 0 1 0 .003 9.393 4.697 4.697 0 0 0-.003-9.393m-11.068 0a4.696 4.696 0 1 0 0 9.393 4.696 4.696 0 0 0 0-9.393M96.831 89.783h7.055v1.874h-7.055zm0 2.869h7.055v1.874h-7.055zm10.942-2.869h7.053v1.874h-7.053zm0 2.869h7.053v1.874h-7.053zm11.068-2.869h7.053v1.874h-7.053zm0 2.869h7.053v1.874h-7.053zm11.067-2.869h7.054v1.874h-7.054zm0 2.869h7.054v1.874h-7.054z"/><path fill="#333" d="M91.617 97.238h49.781v8.51H91.617z"/><path fill="#F2F2F2" d="M94.726 98.722h12.754v1.327H94.726zm0 2.185h12.754v1.328H94.726zm0 2.186h12.754v1.326H94.726zm14.839-4.371h12.755v1.327h-12.755zm0 2.185h12.755v1.328h-12.755zm0 2.186h12.755v1.326h-12.755zm14.839-4.371h12.756v1.327h-12.756zm0 2.185h12.756v1.328h-12.756zm0 2.186h12.756v1.326h-12.756z"/><path fill="#333" d="M68.997 82.688H35.882a2.415 2.415 0 0 0-2.416 2.415v43.598a2.414 2.414 0 0 0 2.416 2.413h33.115a2.414 2.414 0 0 0 2.412-2.413V85.103a2.415 2.415 0 0 0-2.412-2.415"/><path fill="#FFF" d="M52.439 127.942a.97.97 0 1 0 0 1.939.97.97 0 0 0 0-1.939M37.773 87.368h29.331v39.064H37.773z"/><path fill="#CCCBC9" d="M37.773 87.368h29.331v3.566H37.773zm0 36.528h29.331v2.536H37.773z"/><path fill="#FF916E" d="M37.786 90.934H67.09v15.056H37.786z"/><path fill="#FDFBF2" d="M41.763 93.024H51.99v7.619H41.763zm11.582 0h10.226v7.619H53.345z"/><path fill="#333" d="M39.094 102.205h10.61v.777h-10.61zm0 1.445h12.997v.776H39.094zm14.435-1.445h11.199v.777H53.529zm0 1.445h8.484v.776h-8.484zm11.13-5.527 1.554-1.18-1.554-1.18zm-24.274 0v-2.36l-1.552 1.18z"/><path fill="#CCCBC9" d="M42.837 107.615a2.756 2.756 0 0 0 0 5.51 2.754 2.754 0 0 0 0-5.51m6.492 0a2.755 2.755 0 1 0 .002 5.51 2.755 2.755 0 0 0-.002-5.51m12.983 0a2.755 2.755 0 1 0 .002 5.51 2.755 2.755 0 0 0-.002-5.51m-6.49 0a2.756 2.756 0 1 0 0 5.512 2.756 2.756 0 0 0 0-5.512m-14.978 6.807h4.138v1.099h-4.138zm0 1.682h4.138v1.099h-4.138zm6.417-1.682h4.137v1.099h-4.137zm0 1.682h4.137v1.099h-4.137zm6.492-1.682h4.137v1.099h-4.137zm0 1.682h4.137v1.099h-4.137zm6.49-1.682h4.138v1.099h-4.138zm0 1.682h4.138v1.099h-4.138z"/><path fill="#333" d="M37.773 118.878h29.331v5.018H37.773z"/><path fill="#F2F2F2" d="M39.604 119.752h7.515v.783h-7.515zm0 1.289h7.515v.783h-7.515zm0 1.29h7.515v.782h-7.515zm8.743-2.579h7.516v.783h-7.516zm0 1.289h7.516v.783h-7.516zm0 1.29h7.516v.782h-7.516zm8.743-2.579h7.515v.783H57.09zm0 1.289h7.515v.783H57.09zm0 1.29h7.515v.782H57.09z"/></svg>